<svg xmlns="http://www.w3.org/2000/svg" width="32" height="32" viewBox="0 0 32 32">
    <path fill="#9abc39" d="M29.81,20.5l-2.55-.59a1.16,1.16,0,0,0-1.36.75,5.92,5.92,0,0,1-.52,1.14,4.18,4.18,0,0,1-1.58,1.48,4.26,4.26,0,0,1-1.61.54,3.48,3.48,0,0,1-1.54-.14,4,4,0,0,1-1.39-.81,5,5,0,0,1-1.14-1.43,5.06,5.06,0,0,1-.6-1.72,3.93,3.93,0,0,1,.06-1.61,3.58,3.58,0,0,1,.7-1.39,4.65,4.65,0,0,1,1.31-1.06,4.18,4.18,0,0,1,2.1-.55,6,6,0,0,1,1.24.17,1.16,1.16,0,0,0,1.36-.75l.87-2.48a1.19,1.19,0,0,0-.81-1.55,8.5,8.5,0,0,0-2.9-.26A10.89,10.89,0,0,0,17,11.64l-.1.06C16.37,11.07,14.29,9,14,8.78a3.08,3.08,0,0,0-3.1-.23c-.1.06-.21.09-.24.07s-1.46-1.84-3.18-4c-3-3.8-3.15-4-3.38-4.2A1.66,1.66,0,0,0,3.06,0,1.77,1.77,0,0,0,1.35,1.18a2,2,0,0,0,0,1.18c.18.52,0,.36,4.28,4l4,3.33.13.09-.09.15a3.26,3.26,0,0,0-.25,2,5.19,5.19,0,0,0,.17.52c.22.52.33.65,1.89,2.23.77.78,1.13,1.13,1.31,1.3a8.74,8.74,0,0,0-.55,1.3,8.44,8.44,0,0,0-.38,3.5,9.08,9.08,0,0,0,1.14,3.58,9.2,9.2,0,0,0,2.41,2.87,8.53,8.53,0,0,0,3.17,1.55,9.17,9.17,0,0,0,2,.26c.26,0,.55.13.55.39a3.35,3.35,0,0,1-.35.94,2.31,2.31,0,0,0-.21.71.9.9,0,0,0,.21.69.87.87,0,0,0,.37.22.89.89,0,0,0,.81-.05,1,1,0,0,0,.34-1,6.86,6.86,0,0,0-.36-1.05,1.35,1.35,0,0,1-.12-.51.31.31,0,0,1,.06-.15,1.07,1.07,0,0,1,.59-.36,11.2,11.2,0,0,0,3.4-1.24,10.78,10.78,0,0,0,3.53-3A8.8,8.8,0,0,0,30.69,22,1.19,1.19,0,0,0,29.81,20.5ZM13.16,10.4a.52.52,0,0,1,.54-.17c.13,0,.17.06,1.35,1.24l.88.87a10.64,10.64,0,0,0-1,.76l-.76-.79C13,11.11,13,11.06,13,10.94A.54.54,0,0,1,13.16,10.4Zm.18,4.5c-.17-.19-.45-.47-.87-.91-1.15-1.2-1.19-1.25-1.2-1.37a.52.52,0,0,1,.18-.54.51.51,0,0,1,.54-.17c.12,0,.17.06,1.34,1.24l.79.78-.15.16A9.77,9.77,0,0,0,13.34,14.9Z"/>
</svg>