<?xml version="1.0" encoding="utf-8"?>
<!-- Generator: Adobe Illustrator 26.0.3, SVG Export Plug-In . SVG Version: 6.00 Build 0)  -->
<svg version="1.1" id="Основной_слой" xmlns="http://www.w3.org/2000/svg" xmlns:xlink="http://www.w3.org/1999/xlink"
	 x="0px" y="0px" viewBox="0 0 128 128" style="enable-background:new 0 0 128 128;" xml:space="preserve">
<style type="text/css">
	.st0{fill:#E6E6E6;}
	.st1{fill:#999999;}
</style>
<rect id="Фон" class="st0" width="128" height="128"/>
<g id="Группа_Furshet">
	<path id="F" class="st1" d="M19.2,85.9h-2.3c-0.4,0-0.8-0.4-0.8-0.8V72.8c0-0.4,0.4-0.8,0.8-0.8h9.2c0.4,0,0.8,0.4,0.8,0.8v1.4
		c0,0.4-0.4,0.8-0.8,0.8h-5.3c-0.4,0-0.8,0.4-0.8,0.8v9.2C20,85.5,19.7,85.9,19.2,85.9z M19.7,78.1h5.5c0.5,0,0.9,0.4,0.9,0.8v1.4
		c0,0.4-0.4,0.8-0.9,0.8h-5.5c-0.5,0-0.9-0.4-0.9-0.8v-1.4C18.8,78.5,19.2,78.1,19.7,78.1z"/>
	<path id="U" class="st1" d="M35.2,86.1c-2,0-3.6-0.6-4.8-1.7c-1.1-1.1-1.7-2.7-1.7-4.7v-6.9c0-0.4,0.3-0.8,0.8-0.8h2.4
		c0.4,0,0.8,0.3,0.8,0.8v6.8c0,1.2,0.2,2,0.7,2.5c0.5,0.5,1.1,0.8,1.9,0.8c0.8,0,1.4-0.3,1.9-0.8c0.5-0.5,0.7-1.4,0.7-2.5v-6.8
		c0-0.4,0.3-0.8,0.8-0.8h2.3c0.4,0,0.8,0.3,0.8,0.8v6.9c0,2-0.6,3.6-1.7,4.7C38.8,85.6,37.2,86.1,35.2,86.1z"/>
	<path id="R" class="st1" d="M44.3,85.4V72.5c0-0.3,0.2-0.5,0.5-0.5h5.8c1.3,0,2.4,0.2,3.3,0.6c0.9,0.4,1.6,1,2.1,1.8
		c0.5,0.8,0.7,1.7,0.7,2.7c0,1.1-0.2,2-0.7,2.7c-0.5,0.7-1.2,1.3-2.1,1.7c-0.9,0.4-2,0.6-3.3,0.6h-2.9c-0.4,0-0.6-0.5-0.3-0.8
		l0.1-0.1c0.3-0.3,0.8-0.1,0.8,0.4v3.7c0,0.3-0.2,0.5-0.5,0.5h-2.9C44.5,85.9,44.3,85.6,44.3,85.4z M47.4,80.1L47.2,80
		c-0.3-0.3-0.1-0.8,0.3-0.8h2.8c0.8,0,1.4-0.2,1.8-0.5c0.4-0.4,0.6-0.9,0.6-1.5c0-0.6-0.2-1.1-0.6-1.5c-0.4-0.4-1-0.5-1.8-0.5h-2.8
		c-0.4,0-0.6-0.5-0.3-0.8l0.1-0.1c0.3-0.3,0.8-0.1,0.8,0.3v5.3C48.2,80.2,47.7,80.4,47.4,80.1z M52.7,85.6l-2.8-4.1
		c-0.2-0.3,0-0.8,0.4-0.8h3c0.2,0,0.3,0.1,0.4,0.2l2.8,4.1c0.2,0.3,0,0.8-0.4,0.8h-3C52.9,85.9,52.8,85.8,52.7,85.6z"/>
	<path id="S" class="st1" d="M63.7,86.1c-1.1,0-2.2-0.1-3.3-0.4c-0.7-0.2-1.3-0.4-1.8-0.7c-0.4-0.2-0.6-0.7-0.4-1.1l0.6-1.4
		c0.2-0.4,0.7-0.6,1.1-0.4c0.4,0.2,0.9,0.4,1.4,0.5c0.8,0.3,1.6,0.4,2.4,0.4c0.6,0,1,0,1.3-0.1c0.3-0.1,0.6-0.2,0.7-0.4
		c0.2-0.2,0.2-0.4,0.2-0.6c0-0.3-0.1-0.5-0.4-0.7c-0.3-0.2-0.7-0.3-1.1-0.5c-0.5-0.1-1-0.2-1.5-0.4c-0.5-0.1-1.1-0.3-1.7-0.4
		c-0.6-0.2-1.1-0.4-1.5-0.7c-0.5-0.3-0.8-0.7-1.1-1.2c-0.3-0.5-0.4-1.1-0.4-1.8c0-0.8,0.2-1.6,0.7-2.2c0.4-0.7,1.1-1.2,2-1.6
		c0.9-0.4,2-0.6,3.4-0.6c0.9,0,1.8,0.1,2.7,0.3c0.6,0.1,1.1,0.3,1.6,0.5c0.4,0.2,0.6,0.7,0.4,1.1L68.4,75c-0.2,0.4-0.7,0.6-1.1,0.4
		c-0.4-0.2-0.8-0.3-1.2-0.4c-0.6-0.2-1.3-0.3-1.9-0.3c-0.5,0-1,0.1-1.3,0.2c-0.3,0.1-0.6,0.3-0.7,0.5C62.1,75.6,62,75.8,62,76
		c0,0.3,0.1,0.6,0.4,0.7c0.3,0.2,0.7,0.3,1.1,0.4c0.5,0.1,1,0.2,1.5,0.3c0.6,0.1,1.1,0.3,1.7,0.4c0.6,0.2,1.1,0.4,1.5,0.7
		c0.5,0.3,0.8,0.7,1.1,1.2c0.3,0.5,0.4,1.1,0.4,1.8c0,0.8-0.2,1.5-0.7,2.2c-0.5,0.7-1.1,1.2-2,1.6C66.2,85.9,65.1,86.1,63.7,86.1z"
		/>
	<path id="H" class="st1" d="M74.8,85.9h-2.3c-0.5,0-0.8-0.4-0.8-0.8V72.9c0-0.5,0.4-0.8,0.8-0.8h2.3c0.5,0,0.8,0.4,0.8,0.8V85
		C75.6,85.5,75.2,85.9,74.8,85.9z M80.7,80.5h-5.1c-0.5,0-1-0.4-1-0.8V78c0-0.5,0.4-0.8,1-0.8h5.1c0.5,0,1,0.4,1,0.8v1.6
		C81.7,80.1,81.2,80.5,80.7,80.5z M81.7,72H84c0.5,0,0.8,0.4,0.8,0.8V85c0,0.5-0.4,0.8-0.8,0.8h-2.3c-0.5,0-0.8-0.4-0.8-0.8V72.9
		C80.9,72.4,81.2,72,81.7,72z"/>
	<path id="E" class="st1" d="M92.1,82.8h5.8c0.4,0,0.7,0.3,0.7,0.7v1.7c0,0.4-0.3,0.7-0.7,0.7h-9.7c-0.4,0-0.7-0.3-0.7-0.7V72.7
		c0-0.4,0.3-0.7,0.7-0.7h9.4c0.4,0,0.7,0.3,0.7,0.7v1.7c0,0.4-0.3,0.7-0.7,0.7h-5.6c-0.4,0-0.7,0.3-0.7,0.7v6.3
		C91.4,82.5,91.7,82.8,92.1,82.8z M91.2,77.4h5.6c0.4,0,0.8,0.3,0.8,0.7v1.5c0,0.4-0.3,0.7-0.8,0.7h-5.6c-0.4,0-0.8-0.3-0.8-0.7
		v-1.5C90.4,77.7,90.7,77.4,91.2,77.4z"/>
	<path id="T" class="st1" d="M103.7,85V76c0-0.4-0.4-0.8-0.8-0.8h-2.6c-0.4,0-0.8-0.4-0.8-0.8v-1.5c0-0.4,0.4-0.8,0.8-0.8h10.7
		c0.4,0,0.8,0.4,0.8,0.8v1.5c0,0.4-0.4,0.8-0.8,0.8h-2.6c-0.4,0-0.8,0.4-0.8,0.8V85c0,0.4-0.4,0.8-0.8,0.8h-2.3
		C104.1,85.9,103.7,85.5,103.7,85z"/>
</g>
<g id="Группа_City">
	<path id="I" class="st1" d="M56.3,66.5V54.1c0-0.4,0.3-0.7,0.7-0.7h2.5c0.4,0,0.7,0.3,0.7,0.7v12.4c0,0.4-0.3,0.7-0.7,0.7H57
		C56.6,67.2,56.3,66.9,56.3,66.5z"/>
	<path id="T_00000039118281939401529600000006219878489313072264_" class="st1" d="M65.9,66.4v-9.1c0-0.4-0.4-0.8-0.8-0.8h-2.7
		c-0.4,0-0.8-0.4-0.8-0.8v-1.5c0-0.4,0.4-0.8,0.8-0.8h10.8c0.4,0,0.8,0.4,0.8,0.8v1.5c0,0.4-0.4,0.8-0.8,0.8h-2.7
		c-0.4,0-0.8,0.4-0.8,0.8v9.1c0,0.4-0.4,0.8-0.8,0.8h-2.3C66.2,67.2,65.9,66.9,65.9,66.4z"/>
	<path id="Y" class="st1" d="M80.2,66.6v-4.4c0-0.2,0.2-0.2,0.3-0.1v0c0.1,0.2-0.2,0.3-0.3,0.1l-4.7-7.8c-0.3-0.4,0.1-1,0.6-1h2.6
		c0.2,0,0.5,0.1,0.6,0.3l3.6,6.1c0.3,0.4-0.1,1-0.6,1l0,0c-0.5,0-0.8-0.6-0.6-1l3.7-6.1c0.1-0.2,0.3-0.3,0.6-0.3h2.2
		c0.5,0,0.8,0.6,0.6,1l-4.7,8c-0.1,0.2-0.3,0-0.3-0.1l0-0.1c0.1-0.2,0.3-0.1,0.3,0.1v4.3c0,0.4-0.3,0.7-0.7,0.7h-2.6
		C80.5,67.2,80.2,66.9,80.2,66.6z"/>
	<path id="C" class="st1" d="M47.3,64.7c0.9-0.2,1.8-0.5,2.7-1c1.2-0.7,2.1-1.4,2.8-2.4c0.5-0.6,0.8-1.3,1.1-2
		c0.2-0.5-0.2-1.1-0.7-1.2l-2-0.5c-0.5-0.1-0.9,0.1-1.1,0.6c-0.1,0.3-0.2,0.6-0.4,0.9c-0.3,0.5-0.7,0.9-1.3,1.2
		c-0.4,0.2-0.8,0.4-1.3,0.4c-0.4,0.1-0.8,0-1.2-0.1c-0.4-0.1-0.8-0.3-1.1-0.6c-0.3-0.3-0.6-0.7-0.9-1.1c-0.3-0.5-0.4-0.9-0.5-1.4
		c-0.1-0.5-0.1-0.9,0.1-1.3c0.1-0.4,0.3-0.8,0.6-1.1c0.3-0.3,0.6-0.6,1-0.8c0.5-0.3,1.1-0.4,1.7-0.4c0.3,0,0.6,0,1,0.1
		c0.5,0.1,0.9-0.2,1.1-0.6l0.7-2c0.2-0.5-0.1-1.1-0.6-1.2c-0.7-0.2-1.5-0.3-2.3-0.2c-1.1,0.1-2.3,0.5-3.5,1.1
		c-1,0.5-1.8,1.2-2.4,1.9c-0.7,0.8-1.1,1.6-1.4,2.5c-0.3,0.9-0.4,1.8-0.3,2.8c0.1,1,0.4,1.9,0.9,2.8c0.5,0.9,1.2,1.7,1.9,2.3
		c0.8,0.6,1.6,1,2.5,1.2c0.5,0.1,1.1,0.2,1.6,0.2c0.2,0,0.4,0.1,0.4,0.3c0,0.2-0.2,0.6-0.3,0.7c-0.1,0.2-0.2,0.4-0.2,0.6
		c0,0.2,0,0.4,0.2,0.5c0.1,0.1,0.2,0.1,0.3,0.2c0.2,0.1,0.5,0.1,0.6,0c0.2-0.2,0.3-0.5,0.3-0.8s-0.2-0.6-0.3-0.8
		c0-0.1-0.1-0.3-0.1-0.4c0-0.1,0-0.1,0-0.1C46.9,64.9,47.1,64.8,47.3,64.7z"/>
	<path id="Вилка" class="st1" d="M43.1,51.7c0-0.1,0-0.3,0-0.4c-0.1-0.1-2.2-2.3-2.4-2.5c-0.4-0.3-0.8-0.4-1.3-0.4
		c-0.4,0-0.8,0.1-1.2,0.2c-0.1,0-0.2,0.1-0.2,0.1c0,0-1.2-1.5-2.5-3.2c-2.4-3-2.5-3.2-2.7-3.3c-0.3-0.2-0.5-0.3-0.9-0.3
		c-0.6,0-1.1,0.4-1.4,0.9c-0.1,0.3-0.1,0.7,0,0.9c0.1,0.4,0,0.3,3.4,3.2c1.7,1.4,3.1,2.6,3.1,2.6l0.1,0.1l-0.1,0.1
		c-0.2,0.4-0.3,1.1-0.2,1.6c0,0.1,0.1,0.3,0.1,0.4c0.2,0.4,0.3,0.5,1.5,1.8c1.1,1.1,1.1,1.1,1.2,1.1c0.2,0,0.3,0,0.4-0.1
		c0.1-0.1,0.2-0.2,0.1-0.4c0-0.1,0-0.1-1-1.1c-0.9-1-0.9-1-1-1.1c0-0.2,0-0.3,0.1-0.4s0.2-0.2,0.4-0.1c0.1,0,0.1,0,1.1,1
		c0.9,0.9,1,1,1.1,1c0.2,0,0.3,0,0.4-0.1c0.1-0.1,0.2-0.2,0.1-0.4c0-0.1,0-0.1-1-1.1c-0.9-1-0.9-1-1-1.1c0-0.2,0-0.3,0.1-0.4
		c0.1-0.1,0.2-0.2,0.4-0.1c0.1,0,0.1,0,1.1,1c0.9,0.9,1,1,1.1,1c0.1,0,0.1,0,0.2,0C42.8,51.9,43,51.8,43.1,51.7z"/>
</g>
</svg>
